<svg viewBox="0 0 320 180" xmlns="http://www.w3.org/2000/svg" font-family="'Newsreader',Georgia,serif" role="img"><defs><marker id="ar" markerWidth="9" markerHeight="9" refX="7" refY="3" orient="auto"><path d="M0,0 L7,3 L0,6 Z" fill="var(--dia-ink,#2a2520)"/></marker></defs><ellipse cx="76" cy="95" rx="57" ry="67" fill="var(--dia-fill,#e7ddc9)" stroke="var(--dia-ink,#2a2520)" stroke-width="1.6"/><text x="76" y="27" font-size="15" fill="var(--dia-ink,#2a2520)" text-anchor="middle" font-style="italic">X</text><ellipse cx="76" cy="100" rx="38" ry="47" fill="var(--dia-acc,#a8431d)" fill-opacity="0.12" stroke="var(--dia-acc,#a8431d)" stroke-width="1.3" stroke-dasharray="4,3"/><text x="76" y="152" font-size="10" fill="var(--dia-acc,#a8431d)" text-anchor="middle">f&#x207B;&#xB9;(B)  open</text><circle cx="66" cy="88" r="2.5" fill="var(--dia-ink,#2a2520)"/><circle cx="76" cy="101" r="2.5" fill="var(--dia-ink,#2a2520)"/><circle cx="85" cy="114" r="2.5" fill="var(--dia-ink,#2a2520)"/><ellipse cx="244" cy="95" rx="57" ry="67" fill="var(--dia-fil2,#d6c9a8)" stroke="var(--dia-ink,#2a2520)" stroke-width="1.6"/><text x="244" y="27" font-size="15" fill="var(--dia-ink,#2a2520)" text-anchor="middle" font-style="italic">Y</text><circle cx="244" cy="100" r="28" fill="var(--dia-acc,#a8431d)" fill-opacity="0.22" stroke="var(--dia-acc,#a8431d)" stroke-width="1.5"/><text x="244" y="78" font-size="11" fill="var(--dia-acc,#a8431d)" text-anchor="middle">B ∈ ℬ</text><path d="M69,88 C105,80 188,88 228,94" fill="none" stroke="var(--dia-ink,#2a2520)" stroke-width="1.2" marker-end="url(#ar)"/><path d="M79,101 C112,96 190,96 216,100" fill="none" stroke="var(--dia-ink,#2a2520)" stroke-width="1.2" marker-end="url(#ar)"/><path d="M88,114 C118,112 192,108 220,106" fill="none" stroke="var(--dia-ink,#2a2520)" stroke-width="1.2" marker-end="url(#ar)"/><text x="160" y="72" font-size="13" fill="var(--dia-ink,#2a2520)" text-anchor="middle" font-style="italic">f</text></svg>
