<svg viewBox="0 0 320 180" xmlns="http://www.w3.org/2000/svg" font-family="'Newsreader',Georgia,serif" role="img"><defs><marker id="ar" markerWidth="9" markerHeight="9" refX="7" refY="3" orient="auto"><path d="M0,0 L7,3 L0,6 Z" fill="var(--dia-ink,#2a2520)"/></marker><marker id="ara" markerWidth="9" markerHeight="9" refX="7" refY="3" orient="auto"><path d="M0,0 L7,3 L0,6 Z" fill="var(--dia-acc,#a8431d)"/></marker></defs><ellipse cx="70" cy="95" rx="52" ry="62" fill="var(--dia-fill,#e7ddc9)" stroke="var(--dia-ink,#2a2520)" stroke-width="1.6"/><ellipse cx="250" cy="95" rx="52" ry="62" fill="var(--dia-fil2,#d6c9a8)" stroke="var(--dia-ink,#2a2520)" stroke-width="1.6"/><text x="70" y="30" font-size="15" fill="var(--dia-ink,#2a2520)" text-anchor="middle" font-weight="normal" font-style="italic">X</text><text x="250" y="30" font-size="15" fill="var(--dia-ink,#2a2520)" text-anchor="middle" font-weight="normal" font-style="italic">Y</text><circle cx="70" cy="70" r="2.8" fill="var(--dia-ink,#2a2520)"/><circle cx="250" cy="80" r="2.8" fill="var(--dia-acc,#a8431d)"/><path d="M78,70 C140,70 170,80 242,80" fill="none" stroke="var(--dia-ink,#2a2520)" stroke-width="1.3" marker-end="url(#ar)"/><circle cx="70" cy="95" r="2.8" fill="var(--dia-ink,#2a2520)"/><circle cx="250" cy="105" r="2.8" fill="var(--dia-acc,#a8431d)"/><path d="M78,95 C140,95 170,105 242,105" fill="none" stroke="var(--dia-ink,#2a2520)" stroke-width="1.3" marker-end="url(#ar)"/><circle cx="70" cy="120" r="2.8" fill="var(--dia-ink,#2a2520)"/><circle cx="250" cy="105" r="2.8" fill="var(--dia-acc,#a8431d)"/><path d="M78,120 C140,120 170,105 242,105" fill="none" stroke="var(--dia-ink,#2a2520)" stroke-width="1.3" marker-end="url(#ar)"/><text x="160" y="50" font-size="14" fill="var(--dia-acc,#a8431d)" text-anchor="middle" font-weight="normal" font-style="italic">f</text></svg>
