<svg viewBox="0 0 320 180" xmlns="http://www.w3.org/2000/svg" font-family="'Newsreader',Georgia,serif" role="img">
    <!-- basepoint -->
    <circle cx="55" cy="95" r="3.4" fill="var(--dia-acc,#a8431d)" />
    <text x="42" y="99" font-size="11" fill="var(--dia-acc,#a8431d)" text-anchor="middle" font-style="italic">x₀</text>
    <!-- class [f]: two nearby loops (accent) -->
    <path d="M55,95 C100,58 175,58 175,95 C175,132 100,132 55,95 Z" fill="none" stroke="var(--dia-acc,#a8431d)" stroke-width="1.8" />
    <path d="M55,95 C100,68 165,68 165,95 C165,122 100,122 55,95 Z" fill="none" stroke="var(--dia-acc,#a8431d)" stroke-width="1" stroke-dasharray="3,2" />
    <text x="192" y="99" font-size="22" fill="var(--dia-acc,#a8431d)" text-anchor="middle">}</text>
    <text x="206" y="99" font-size="11" fill="var(--dia-acc,#a8431d)" text-anchor="start" font-style="italic">[f]</text>
    <!-- class [g]: two larger loops (ink) -->
    <path d="M55,95 C100,32 210,32 210,95 C210,158 100,158 55,95 Z" fill="none" stroke="var(--dia-ink,#2a2520)" stroke-width="1.8" />
    <path d="M55,95 C100,42 200,42 200,95 C200,148 100,148 55,95 Z" fill="none" stroke="var(--dia-ink,#2a2520)" stroke-width="1" stroke-dasharray="3,2" />
    <text x="228" y="80" font-size="22" fill="var(--dia-ink,#2a2520)" text-anchor="middle">}</text>
    <text x="242" y="80" font-size="11" fill="var(--dia-ink,#2a2520)" text-anchor="start" font-style="italic">[g]</text>
    <!-- caption -->
    <text x="155" y="173" font-size="10" fill="var(--dia-mut,#9a8f7d)" text-anchor="middle">π₁(X, x₀) = { [f], [g], … }</text>
</svg>
