<svg viewBox="0 0 320 180" xmlns="http://www.w3.org/2000/svg" font-family="'Newsreader',Georgia,serif" role="img"><circle cx="70" cy="95" r="3.4" fill="var(--dia-acc,#a8431d)"/><text x="60" y="99" font-size="12" fill="var(--dia-acc,#a8431d)" text-anchor="middle" font-weight="normal" font-style="italic">x₀</text><path d="M70,95 C150,40 250,40 250,95 C250,150 150,150 70,95 Z" fill="none" stroke="var(--dia-acc,#a8431d)" stroke-width="1.8"/><path d="M70,95 C150,22 250,22 250,95 C250,168 150,168 70,95 Z" fill="none" stroke="var(--dia-mut,#9a8f7d)" stroke-width="1"/><path d="M70,95 C150,4 250,4 250,95 C250,186 150,186 70,95 Z" fill="none" stroke="var(--dia-mut,#9a8f7d)" stroke-width="1"/><path d="M70,95 C150,-14 250,-14 250,95 C250,204 150,204 70,95 Z" fill="none" stroke="var(--dia-acc,#a8431d)" stroke-width="1.8"/><text x="160" y="26" font-size="13" fill="var(--dia-acc,#a8431d)" text-anchor="middle" font-weight="normal" font-style="italic">f₀ ≃ f₁</text></svg>
