<svg viewBox="0 0 320 180" xmlns="http://www.w3.org/2000/svg" font-family="'Newsreader',Georgia,serif" role="img"><ellipse cx="40" cy="95" rx="12" ry="60" fill="var(--dia-fil2,#d6c9a8)" stroke="var(--dia-ink,#2a2520)" stroke-width="1.6"/><ellipse cx="180" cy="158" rx="130" ry="12" fill="var(--dia-fil2,#d6c9a8)" stroke="var(--dia-ink,#2a2520)" stroke-width="1.6"/><rect x="58" y="38" width="244" height="108" fill="var(--dia-fill,#e7ddc9)" stroke="var(--dia-ink,#2a2520)" stroke-width="1.5"/><line x1="88" y1="38" x2="88" y2="146" stroke="var(--dia-mut,#9a8f7d)" stroke-width="0.7"/><line x1="124" y1="38" x2="124" y2="146" stroke="var(--dia-mut,#9a8f7d)" stroke-width="0.7"/><line x1="160" y1="38" x2="160" y2="146" stroke="var(--dia-mut,#9a8f7d)" stroke-width="0.7"/><line x1="196" y1="38" x2="196" y2="146" stroke="var(--dia-mut,#9a8f7d)" stroke-width="0.7"/><line x1="232" y1="38" x2="232" y2="146" stroke="var(--dia-mut,#9a8f7d)" stroke-width="0.7"/><line x1="268" y1="38" x2="268" y2="146" stroke="var(--dia-mut,#9a8f7d)" stroke-width="0.7"/><line x1="58" y1="62" x2="302" y2="62" stroke="var(--dia-mut,#9a8f7d)" stroke-width="0.7"/><line x1="58" y1="90" x2="302" y2="90" stroke="var(--dia-mut,#9a8f7d)" stroke-width="0.7"/><line x1="58" y1="118" x2="302" y2="118" stroke="var(--dia-mut,#9a8f7d)" stroke-width="0.7"/><ellipse cx="40" cy="95" rx="12" ry="60" fill="var(--dia-fil2,#d6c9a8)" stroke="var(--dia-ink,#2a2520)" stroke-width="1.6"/><ellipse cx="180" cy="158" rx="130" ry="12" fill="var(--dia-fil2,#d6c9a8)" stroke="var(--dia-ink,#2a2520)" stroke-width="1.6"/><rect x="58" y="38" width="244" height="108" fill="var(--dia-fill,#e7ddc9)" stroke="var(--dia-ink,#2a2520)" stroke-width="1.5"/><line x1="88" y1="38" x2="88" y2="146" stroke="var(--dia-mut,#9a8f7d)" stroke-width="0.7"/><line x1="124" y1="38" x2="124" y2="146" stroke="var(--dia-mut,#9a8f7d)" stroke-width="0.7"/><line x1="160" y1="38" x2="160" y2="146" stroke="var(--dia-mut,#9a8f7d)" stroke-width="0.7"/><line x1="196" y1="38" x2="196" y2="146" stroke="var(--dia-mut,#9a8f7d)" stroke-width="0.7"/><line x1="232" y1="38" x2="232" y2="146" stroke="var(--dia-mut,#9a8f7d)" stroke-width="0.7"/><line x1="268" y1="38" x2="268" y2="146" stroke="var(--dia-mut,#9a8f7d)" stroke-width="0.7"/><line x1="58" y1="62" x2="302" y2="62" stroke="var(--dia-mut,#9a8f7d)" stroke-width="0.7"/><line x1="58" y1="90" x2="302" y2="90" stroke="var(--dia-mut,#9a8f7d)" stroke-width="0.7"/><line x1="58" y1="118" x2="302" y2="118" stroke="var(--dia-mut,#9a8f7d)" stroke-width="0.7"/><text x="40" y="30" font-size="14" fill="var(--dia-ink,#2a2520)" text-anchor="middle" font-weight="normal" font-style="italic">Y</text><text x="180" y="178" font-size="13" fill="var(--dia-ink,#2a2520)" text-anchor="middle" font-weight="normal" font-style="italic">X</text><text x="180" y="96" font-size="14" fill="var(--dia-ink,#2a2520)" text-anchor="middle" font-weight="normal" font-style="italic">X×Y</text></svg>
